<svg width="200" height="100" viewBox="0 0 200 100" fill="none" xmlns="http://www.w3.org/2000/svg">
<path d="M50 22.9471C50 22.0835 50.5543 21.3175 51.3745 21.0474L88.3745 8.86449C89.6682 8.43852 91 9.40213 91 10.7642V31.5529C91 32.4165 90.4457 33.1825 89.6255 33.4526L52.6255 45.6355C51.3318 46.0615 50 45.0979 50 43.7358V22.9471Z" fill="#BBBBBB" fill-opacity="0.49"/>
<path d="M50 22.9471C50 22.0835 50.5543 21.3175 51.3745 21.0474L88.3745 8.86449C89.6682 8.43852 91 9.40213 91 10.7642V31.5529C91 32.4165 90.4457 33.1825 89.6255 33.4526L52.6255 45.6355C51.3318 46.0615 50 45.0979 50 43.7358V22.9471Z" fill="#BBBBBB" fill-opacity="0.49"/>
<path fill-rule="evenodd" clip-rule="evenodd" d="M117.707 30.9708C118.658 29.8538 119.302 28.4848 119.195 26.9509C118.885 22.5312 112.732 23.5035 111.536 25.7342C110.339 27.9648 110.481 33.6231 112.028 34.0218C112.645 34.1808 113.959 33.7913 115.296 32.9852L114.457 38.9239H119.413L117.707 30.9708Z" fill="#B28B67"/>
<path fill-rule="evenodd" clip-rule="evenodd" d="M114.361 23.1633C115.014 23.0561 116.773 22.9825 117.097 22.9825C117.305 22.9825 117.529 23.0299 117.652 22.8395C117.752 22.6837 117.716 22.4201 117.746 22.2392C117.78 22.0291 117.83 21.8217 117.88 21.6148C118.022 21.0261 118.238 20.466 118.539 19.9402C119.105 18.9536 119.933 18.1809 120.979 17.7312C122.134 17.2347 123.441 17.121 124.683 17.2217C126.013 17.3295 127.216 17.7684 128.471 18.1814C129.668 18.5749 130.92 18.7298 132.172 18.5376C133.432 18.344 134.384 17.6609 135.448 17.0124C136.536 16.3486 137.78 15.9144 139.067 16.0142C140.268 16.1074 141.375 16.6034 142.368 17.2659C143.297 17.8857 144.064 18.6315 144.497 19.681C144.962 20.8101 144.962 22.0494 144.196 23.0472C143.086 24.4935 141.026 24.8675 139.311 24.8304C138.32 24.8089 137.346 24.6279 136.409 24.2986C135.161 23.8595 134.082 23.1151 132.914 22.5112C132.366 22.2278 131.799 21.9951 131.205 21.8274C130.629 21.6647 130.061 21.59 129.54 21.9382C128.988 22.3065 128.493 22.6683 127.861 22.8988C127.256 23.12 126.614 23.2438 125.968 23.2388C124.713 23.2291 123.475 22.8378 122.255 22.5757C121.26 22.362 120.196 22.1491 119.182 22.3545C118.759 22.4402 118.141 22.6172 117.988 23.0569C120.56 23.5231 121.571 26.7041 120.845 29.0392C120.454 30.2996 118.102 31.7729 117.187 31.1103C116.607 30.6906 116.959 30.1395 117.187 29.7757C117.623 29.079 117.772 28.1841 116.965 27.6991C116.269 27.2807 115.538 28.2741 115.524 28.2731C115.333 28.258 113.68 27.3233 112.541 25.9593C111.418 26.0259 111.247 25.2852 111.516 24.6795C111.784 24.0737 113.458 23.3114 114.361 23.1633Z" fill="#191847"/>
<path d="M121.478 92C112.696 92 105.576 85.204 105.576 76.8207C105.576 68.4374 112.696 61.6413 121.478 61.6413C130.261 61.6413 137.38 68.4374 137.38 76.8207C137.38 85.204 130.261 92 121.478 92Z" fill="#C5CFD6"/>
<path fill-rule="evenodd" clip-rule="evenodd" d="M91.4274 89.658C94.0735 83.8014 95.9871 78.7017 96.7553 76.0111C98.0705 71.4041 99.071 67.3503 99.3239 65.8364C99.9269 62.2262 94.685 62.016 93.9922 63.8102C92.9435 66.5257 91.1127 75.4478 88.9129 88.9244L91.4274 89.658ZM122.121 71.2784C119.693 70.3187 111.191 67.3155 107.09 66.4659C105.912 66.2218 104.77 65.995 103.696 65.79C100.505 65.1807 98.8511 70.9384 101.925 71.3808C109.58 72.4825 120.433 73.6203 121.361 73.7479C122.663 73.9269 123.647 71.8815 122.121 71.2784Z" fill="#B28B67"/>
<path fill-rule="evenodd" clip-rule="evenodd" d="M101.737 64.2056L114.87 57.5205V56.0652H113.308C100.603 59.3026 94.1109 61.3773 93.8314 62.2894C93.8284 62.2992 93.8257 62.309 93.8231 62.3188C93.8168 62.3272 93.8105 62.3357 93.8043 62.3442C91.2865 65.8069 89.7786 82.7121 89.2837 83.9779L94.1083 84.6977C95.9539 77.854 101.859 73.0864 101.702 64.8897C101.744 64.6493 101.755 64.4213 101.737 64.2056Z" fill="#1F28CF"/>
<path fill-rule="evenodd" clip-rule="evenodd" d="M113.779 68.1758C114.98 67.9353 116.087 67.7206 117.033 67.5545C123.149 66.4818 124.933 63.2081 123.878 56.0652H112.61C110.769 56.594 101.203 60.6056 96.24 62.7393C92.955 64.1515 93.9906 69.2423 95.8508 70.5671C95.8609 70.6484 95.8944 70.7036 95.954 70.7283C105.961 74.8758 113.877 72.6996 116.522 73.3949L117.745 69.5363L113.779 68.1758Z" fill="#2B44FF"/>
<path fill-rule="evenodd" clip-rule="evenodd" d="M121.291 70.665C121.946 70.7278 122.412 70.8262 122.687 70.9605C123.022 71.1237 123.483 71.4177 124.071 71.8424C123.881 72.2308 122.179 75.7205 118.965 82.3118C117.933 82.1452 117.524 81.7513 117.738 81.1301C117.952 80.509 118.125 79.9905 118.256 79.5746L118.46 73.6505C118.464 73.5365 118.559 73.4473 118.673 73.4512C118.675 73.4513 118.677 73.4514 118.679 73.4515L119.591 73.5088C120.108 73.0896 120.45 72.7104 120.616 72.3712C120.75 72.0955 120.824 71.6606 120.839 71.0663L120.839 71.0663C120.844 70.8383 121.033 70.6578 121.261 70.6633C121.271 70.6635 121.281 70.6641 121.291 70.665Z" fill="#E4E4E4"/>
<path fill-rule="evenodd" clip-rule="evenodd" d="M92.6317 88.5722C92.8627 89.1889 92.9783 89.6504 92.9783 89.9566C92.9783 90.3291 92.9162 90.8725 92.7921 91.587C92.3601 91.587 88.4774 91.587 81.1439 91.587C80.8412 90.5863 81.016 90.046 81.6681 89.9662C82.3203 89.8865 82.8621 89.8144 83.2934 89.7501L88.7074 87.3365C88.8116 87.2901 88.9337 87.3369 88.9801 87.4411C88.9809 87.4429 88.9817 87.4446 88.9824 87.4465L89.3304 88.2906C89.9342 88.5723 90.4248 88.7132 90.8022 88.7132C91.1089 88.7132 91.5324 88.5893 92.0728 88.3416L92.0728 88.3416C92.2801 88.2465 92.5253 88.3376 92.6204 88.5449C92.6245 88.5539 92.6283 88.563 92.6317 88.5722Z" fill="#E4E4E4"/>
<path fill-rule="evenodd" clip-rule="evenodd" d="M102.065 50.4101L94.582 47.1237C93.2711 45.8174 92.0052 44.8246 90.7844 44.1452C90.4194 44.029 89.7957 43.9939 90.4611 44.9657C91.1265 45.9376 91.7827 46.9898 91.5168 47.3304C91.251 47.6711 90.4808 47.2951 90.1765 47.849C89.9736 48.2183 91.2719 48.66 94.0713 49.1742L99.6758 53.4712L102.065 50.4101ZM132.319 51.3152L128.087 52.1549C132.343 60.0864 134.625 64.2901 134.934 64.766C135.629 65.8368 134.981 67.7992 134.741 68.8326C136.244 69.1824 135.651 66.921 137.552 67.3932C139.288 67.8241 140.759 68.9301 142.377 67.4385C142.576 67.2551 142.722 66.6819 142.044 66.388C140.354 65.6555 137.857 64.284 137.452 63.7516C136.9 63.0255 135.189 58.88 132.319 51.3152Z" fill="#B28B67"/>
<path fill-rule="evenodd" clip-rule="evenodd" d="M116.585 35.4816L114.799 35.1753C110.909 38.9485 109.322 48.0134 106.73 49.2133C104.279 50.3478 100.805 49.25 96.675 47.7677L95.4103 50.5933C99.1625 54.6527 107.156 58.0823 110.396 56.1244C115.577 52.9942 116.772 41.8139 116.585 35.4816Z" fill="#E87613"/>
<path fill-rule="evenodd" clip-rule="evenodd" d="M124.37 57.9239C117.209 57.9239 111.942 57.9239 108.568 57.9239C107.846 57.9239 107.982 56.8813 108.087 56.3552C109.291 50.2834 113.994 43.7382 113.994 35.0951L118.551 34.3804C122.321 40.4436 123.625 47.9085 124.37 57.9239Z" fill="#DDE3E9"/>
<path fill-rule="evenodd" clip-rule="evenodd" d="M125.946 51.7764C129.167 57.5868 131.874 61.7701 134.068 64.3261L137.38 63.6774C135.247 50.4459 129.069 40.6803 118.846 34.3804H118.023L117.041 34.3804C112.949 48.3283 111.821 57.6218 113.657 62.2609H127.88C127.655 58.8664 126.934 55.2765 125.946 51.7764H125.946Z" fill="#FFAD33"/>
<path d="M54 25.4773C54 24.6117 54.5569 23.8443 55.3798 23.5759L94.3798 10.8547C95.6725 10.433 97 11.3964 97 12.7561V34.5227C97 35.3883 96.4431 36.1557 95.6202 36.4241L56.6202 49.1453C55.3275 49.567 54 48.6036 54 47.2439V25.4773Z" fill="#C5DCFF" fill-opacity="0.36"/>
<path d="M54 25.4773C54 24.6117 54.5569 23.8443 55.3798 23.5759L94.3798 10.8547C95.6725 10.433 97 11.3964 97 12.7561V34.5227C97 35.3883 96.4431 36.1557 95.6202 36.4241L56.6202 49.1453C55.3275 49.567 54 48.6036 54 47.2439V25.4773Z" fill="#C5DCFF" fill-opacity="0.36"/>
</svg>
