<svg width="200" height="100" viewBox="0 0 200 100" fill="none" xmlns="http://www.w3.org/2000/svg">
<path d="M137.646 95.8246C115.872 100.436 108.376 90.0274 86.9579 89.5004C66.968 88.9734 2.00102 94.9023 37.3402 73.6901C51.1124 65.4234 97.6668 65.6531 150.854 69.8692C204.041 74.0853 163.849 90.2755 137.646 95.8246Z" fill="white"/>
<path fill-rule="evenodd" clip-rule="evenodd" d="M106.92 15.4838C107.577 17.9033 108.432 23.3417 107.559 24.1948H102.035C102.035 24.185 102.034 24.1752 102.034 24.1654C99.9864 23.9389 98.394 22.203 98.394 20.0952V16.0952C98.394 13.8335 100.228 12 102.489 12H102.87C104.924 12 106.625 13.5121 106.92 15.4838Z" fill="#191847"/>
<path fill-rule="evenodd" clip-rule="evenodd" d="M100.539 19.3315C99.6615 18.3012 99.0675 17.0386 99.1667 15.6239C99.4528 11.5476 105.127 12.4443 106.231 14.5017C107.335 16.5591 107.203 21.7777 105.777 22.1454C105.208 22.2921 103.996 21.9328 102.763 21.1894L103.537 26.6667H98.9655L100.539 19.3315Z" fill="#D4A181"/>
<path fill-rule="evenodd" clip-rule="evenodd" d="M101.775 18.6428C101.986 20.9053 101.901 23.489 101.274 24.1023H95.7498C95.442 18.7549 98.4164 20.8257 98.4164 15.791C98.6019 15.6098 98.7771 15.4305 98.9505 15.2758L98.9443 15.1278C99.9009 13.1696 101.114 12.1905 102.585 12.1905C104.791 12.1905 105.487 13.2168 106.08 14.0882C105.636 15.6092 103.916 15.8347 102.388 16.7828C102.207 16.6364 101.978 16.5486 101.727 16.5486C101.149 16.5486 100.68 17.0177 100.68 17.5963C100.68 18.1749 101.149 18.6439 101.727 18.6439C101.743 18.6439 101.759 18.6435 101.775 18.6428Z" fill="#191847"/>
<path fill-rule="evenodd" clip-rule="evenodd" d="M91.6146 61.1596C96.184 62.4377 100.126 63.0767 103.442 63.0767C106.757 63.0767 109.836 62.0926 112.68 60.1244C108.208 58.8126 104.526 58.1567 101.632 58.1567C98.7387 58.1567 95.3995 59.1577 91.6146 61.1596Z" fill="#1F28CF"/>
<path fill-rule="evenodd" clip-rule="evenodd" d="M107.397 64.9189C107.353 64.8527 107.316 64.7806 107.286 64.7026C106.676 63.0873 96.8925 45.662 95.9178 42.4762H106.932C107.673 44.8984 111.009 60.099 111.478 63.1317C112.959 67.9156 116.008 83.4086 116.398 84.4819C116.807 85.611 114.503 86.7873 113.889 85.3992C112.912 83.1905 110.584 77.0791 109.548 73.3475C108.576 69.8491 107.785 66.7018 107.397 64.9189Z" fill="#BA8B72"/>
<path fill-rule="evenodd" clip-rule="evenodd" d="M98.3859 67.0464C93.9132 68.1769 77.5529 70.2205 76.4302 70.5411C75.2753 70.8708 74.2626 68.4903 75.6902 67.9746C77.9616 67.1541 84.2205 65.2582 88.0153 64.4846C91.0677 63.8623 93.8529 63.3545 95.7229 63.0572C95.5645 57.8045 94.8403 45.1988 95.3149 42.4762H105.061C104.606 45.087 100.758 64.1367 100.043 66.0435C99.8158 66.7243 99.1386 67.0251 98.3859 67.0464Z" fill="#D4A181"/>
<path fill-rule="evenodd" clip-rule="evenodd" d="M75.7938 67.3407C75.1966 67.2297 74.759 67.1986 74.4808 67.2477C74.1426 67.3073 73.6589 67.4507 73.0298 67.6778C73.099 68.0703 73.7208 71.5969 74.8953 78.2578C75.8528 78.3725 76.3155 78.1273 76.2835 77.5221C76.2515 76.917 76.2302 76.4134 76.2195 76.0113L77.5447 70.7072C77.5702 70.6052 77.5081 70.5018 77.406 70.4763C77.4043 70.4758 77.4025 70.4754 77.4008 70.4751L76.5783 70.2942C76.2257 69.7909 76.0192 69.3679 75.9588 69.025C75.9097 68.7465 75.9543 68.3419 76.0928 67.8115L76.0928 67.8115C76.1459 67.6079 76.024 67.3998 75.8204 67.3467C75.8116 67.3444 75.8028 67.3424 75.7938 67.3407Z" fill="#E4E4E4"/>
<path fill-rule="evenodd" clip-rule="evenodd" d="M113.19 85.2194C112.977 85.7883 112.87 86.2139 112.87 86.4963C112.87 86.8398 112.927 87.341 113.042 88C113.44 88 117.021 88 123.785 88C124.064 87.077 123.903 86.5788 123.302 86.5052C122.7 86.4316 122.2 86.3651 121.803 86.3058L116.809 84.0798C116.713 84.037 116.601 84.0801 116.558 84.1762C116.557 84.1778 116.556 84.1795 116.556 84.1812L116.235 84.9597C115.678 85.2195 115.225 85.3495 114.877 85.3495C114.594 85.3495 114.204 85.2352 113.705 85.0068L113.705 85.0067C113.514 84.9191 113.288 85.003 113.2 85.1943C113.197 85.2025 113.193 85.2109 113.19 85.2194Z" fill="#E4E4E4"/>
<path fill-rule="evenodd" clip-rule="evenodd" d="M95.3464 42.4762C99.641 41.2475 103.705 41.2475 107.537 42.4762C108.87 48.5595 112.11 50.974 112.68 60.3007C106.204 63.5186 98.2035 58.0058 91.5369 61.1439C89.6321 56.7545 92.2988 46.1837 95.3464 42.4762Z" fill="#2B44FF"/>
<path fill-rule="evenodd" clip-rule="evenodd" d="M113.823 34.9163L121.343 33.8905C122.848 33.0537 124.232 32.4872 125.495 32.191C125.851 32.1807 126.416 32.3099 125.574 33.0124C124.731 33.7149 123.876 34.492 124.026 34.867C124.176 35.2419 124.96 35.1024 125.09 35.679C125.176 36.0635 123.905 36.1259 121.274 35.8664L115.172 38.2857L113.823 34.9163ZM90.1979 36.6571L94.3688 36.6727C89.7953 46.9649 87.4105 52.3537 87.2147 52.8392C86.7739 53.9315 87.7066 55.595 88.1054 56.489C86.8064 57.0703 86.9448 54.9175 85.3061 55.6799C83.8103 56.3758 82.6725 57.6367 80.9444 56.5704C80.7319 56.4393 80.4991 55.9457 81.0616 55.5599C82.4631 54.599 84.4827 52.9171 84.7556 52.3635C85.1277 51.6085 86.9418 46.3731 90.1979 36.6571Z" fill="#D4A181"/>
<path fill-rule="evenodd" clip-rule="evenodd" d="M101.623 23.4286L104.888 23.6461C105.692 30.9225 110.073 35.5186 119.882 33.9627L121.185 43.3331C112.017 44.5179 103.977 40.8476 102.33 30.9102C101.903 28.3377 101.566 25.6605 101.623 23.4286Z" fill="#AFB9C5"/>
<path fill-rule="evenodd" clip-rule="evenodd" d="M100.011 22.4792L104.959 23.6124C104.959 32.1228 107.67 37.5525 109.061 43.8095H95.6975C95.5093 45.9716 95.3937 48.1938 95.3335 50.4762H85.3276C87.595 38.4122 92.3807 29.0789 99.6846 22.4762H100.009L100.011 22.4792Z" fill="#C5CFD6"/>
<path fill-rule="evenodd" clip-rule="evenodd" d="M97.806 31.6684C97.4616 36.9715 97.6641 41.0186 98.4136 43.8095H95.6976C96.0705 39.5265 96.7285 35.4794 97.806 31.6684V31.6684Z" fill="black" fill-opacity="0.1"/>
<path fill-rule="evenodd" clip-rule="evenodd" d="M153.509 19.0456C154.268 18.9534 155.077 18.986 155.782 19.2837C157.282 19.9169 157.708 21.679 157.687 23.1113C157.665 24.6529 157.336 26.3367 158.514 27.5788C159.056 28.1499 159.73 28.5869 160.261 29.1684C160.83 29.7899 161.276 30.5009 161.606 31.2645C162.212 32.667 162.509 34.3164 161.955 35.7876C161.467 37.083 160.239 38.2521 160.504 39.7251C160.781 41.2616 162.339 42.4363 163.312 43.5808C164.414 44.876 165.429 46.5314 165.595 48.23C165.755 49.8578 165.043 51.504 163.95 52.7345C161.766 55.1932 158.483 56.3985 155.172 56.3911C153.767 56.3878 152.175 56.3247 150.963 55.5734C150.588 55.3412 150.39 55.0806 150.167 54.7184C149.967 54.3937 149.703 54.1824 149.398 53.9526C148.727 53.4478 148.242 52.7676 147.933 52.006C146.731 49.0482 147.691 45.3891 149.373 42.7625C149.771 42.1403 150.097 41.5414 149.904 40.7997C149.702 40.0254 149.206 39.3271 148.766 38.6615C148.333 38.0038 147.837 37.3763 147.498 36.6651C147.143 35.92 147.043 35.1399 147.106 34.3245C147.224 32.7929 147.888 31.3795 148.829 30.1477C149.736 28.9613 150.8 27.826 150.802 26.2714C150.805 24.6237 149.698 23.158 150.169 21.4828C150.365 20.7892 150.757 20.0775 151.389 19.6616C151.996 19.2628 152.796 19.1322 153.509 19.0456Z" fill="#DDE3E9"/>
<path fill-rule="evenodd" clip-rule="evenodd" d="M153.014 21.6796C153.028 21.4584 153.292 21.3256 153.5 21.3834C153.773 21.4594 153.768 21.7136 153.761 21.94C153.739 22.636 153.84 23.3124 154.008 23.9877C154.358 25.3917 155.004 26.6852 155.516 28.0339C156.027 29.3814 156.267 30.7727 155.967 32.1986C155.684 33.543 155.24 34.8526 154.95 36.1987C154.695 37.3851 154.424 38.6363 154.812 39.8197C155.186 40.9588 156.013 41.8865 156.608 42.9159C157.84 45.0469 158.386 47.4109 158.459 49.8438C158.493 50.9735 158.463 52.1136 158.199 53.2216C158.048 53.8596 157.844 54.7218 157.294 55.1623C157.041 55.3654 156.607 55.4356 156.394 55.1348C156.194 54.8527 156.37 54.4159 156.433 54.1152C156.708 52.8135 156.764 51.4832 156.698 50.1615C156.634 48.8812 156.482 47.603 156.077 46.3803C155.701 45.2456 155.13 44.2264 154.458 43.2338C153.773 42.2222 153.061 41.2085 152.778 40.0099C152.49 38.7926 152.724 37.5539 153.036 36.3598C153.366 35.0968 153.799 33.87 154.246 32.6412C154.682 31.4438 154.837 30.3109 154.596 29.0577C154.121 26.5819 152.848 24.258 153.014 21.6796Z" fill="#C5CFD6"/>
<path fill-rule="evenodd" clip-rule="evenodd" d="M173.53 22.0498C174.469 22.3332 175.401 22.7905 176.07 23.5075C177.492 25.0323 177.055 27.3369 176.27 29.0201C175.425 30.8317 174.144 32.6528 174.866 34.7314C175.198 35.687 175.756 36.5525 176.071 37.5155C176.407 38.5445 176.552 39.6161 176.534 40.69C176.5 42.6623 175.972 44.7669 174.54 46.22C173.28 47.4993 171.218 48.2465 170.747 50.1258C170.255 52.0862 171.457 54.2813 171.991 56.1387C172.595 58.2407 172.906 60.7234 172.199 62.8184C171.521 64.8261 169.811 66.4045 167.875 67.294C164.007 69.0714 159.516 68.7979 155.637 67.076C153.99 66.3449 152.157 65.4467 151.134 63.9305C150.818 63.4619 150.724 63.0515 150.655 62.5078C150.594 62.0203 150.396 61.6339 150.16 61.2041C149.641 60.2598 149.434 59.2044 149.476 58.1437C149.638 54.0242 152.709 50.1936 156.077 47.9575C156.875 47.4277 157.575 46.8884 157.742 45.911C157.917 44.8908 157.706 43.808 157.544 42.7937C157.385 41.7913 157.137 40.7928 157.118 39.7763C157.097 38.7114 157.394 37.737 157.901 36.8052C158.853 35.0549 160.384 33.7273 162.142 32.7576C163.835 31.8235 165.687 31.0316 166.516 29.1943C167.394 27.2471 166.874 24.9407 168.318 23.2037C168.915 22.4844 169.754 21.8458 170.716 21.6812C171.639 21.5233 172.648 21.7833 173.53 22.0498Z" fill="#DDE3E9"/>
<path fill-rule="evenodd" clip-rule="evenodd" d="M171.614 25.2698C171.747 25.0151 172.125 24.9956 172.338 25.1722C172.617 25.4049 172.477 25.7031 172.35 25.9675C171.957 26.7801 171.72 27.6339 171.561 28.5213C171.23 30.3663 171.305 32.235 171.193 34.099C171.082 35.9614 170.63 37.7341 169.528 39.2663C168.49 40.711 167.281 42.0302 166.234 43.4734C165.311 44.7454 164.335 46.0855 164.166 47.6895C164.003 49.2334 164.481 50.7629 164.635 52.2922C164.954 55.4581 164.348 58.5427 163.153 61.4618C162.598 62.8173 161.962 64.1516 161.07 65.3264C160.557 66.0028 159.865 66.9176 158.99 67.1527C158.587 67.2611 158.043 67.1183 157.952 66.6509C157.866 66.2124 158.302 65.7867 158.534 65.4638C159.542 64.0658 160.307 62.5193 160.926 60.9197C161.525 59.3702 162.02 57.7773 162.19 56.1181C162.348 54.5784 162.217 53.0736 161.954 51.5476C161.685 49.9926 161.386 48.4208 161.686 46.8539C161.991 45.2623 162.916 43.9172 163.91 42.666C164.961 41.3425 166.113 40.1153 167.283 38.8934C168.424 37.7027 169.201 36.4416 169.579 34.8321C170.327 31.6522 170.062 28.2367 171.614 25.2698Z" fill="#C5CFD6"/>
<path fill-rule="evenodd" clip-rule="evenodd" d="M144.522 33.7458C146.082 33.7458 147.454 34.5685 148.399 35.7359C149.506 37.1026 149.729 38.7715 150.179 40.4003C150.402 41.2109 150.787 42.0156 151.461 42.5663C152.073 43.0672 152.851 43.1674 153.585 43.4121C155.051 43.9011 156.235 45.0791 156.703 46.5166C157.273 48.2699 156.669 50.0381 156.773 51.815C156.868 53.4469 158.486 54.465 159.787 55.2473C161.07 56.0187 162.227 56.7407 162.613 58.2435C163.023 59.8373 163.16 61.6163 162.593 63.1907C161.648 65.8123 158.882 66.9666 156.209 67.1456C153.784 67.308 150.734 67.053 148.912 65.3017C147.822 64.2537 147.428 62.7879 147.477 61.3296C147.507 60.4228 147.688 59.5244 147.921 58.6481C148.087 58.027 148.31 57.4086 148.374 56.7668C148.543 55.0593 146.957 54.7313 145.606 54.2625C143.89 53.6667 142.689 52.5413 141.853 50.9735C141.075 49.5136 140.749 47.8749 141.215 46.2677C141.454 45.447 141.886 44.7024 142.472 44.0691C142.729 43.7903 143.093 43.5578 143.326 43.265C143.543 42.9915 143.496 42.6371 143.421 42.3168C143.075 40.8371 141.996 39.6119 141.61 38.1349C141.262 36.8017 141.468 35.1425 142.693 34.2824C143.222 33.9108 143.875 33.7499 144.522 33.7458Z" fill="#C5CFD6"/>
<path fill-rule="evenodd" clip-rule="evenodd" d="M146.648 37.6011C148.302 39.3534 148.751 41.7309 148.883 44.0352C148.957 45.3274 148.88 46.6903 149.262 47.9436C149.588 49.0164 150.354 49.8364 151.143 50.6114C152.731 52.1715 154.503 53.7576 154.967 56.0155C155.24 57.3405 155.056 58.7092 155.433 60.0197C155.775 61.2108 156.378 62.3811 157.112 63.387C157.702 64.197 158.472 64.8172 159.117 65.5722C159.314 65.8027 159.596 66.142 159.515 66.4674C159.42 66.8485 158.932 66.9691 158.586 66.9092C157.778 66.7697 157.099 66.003 156.571 65.4456C155.8 64.6305 155.144 63.7539 154.611 62.7705C154.019 61.6784 153.542 60.5196 153.339 59.2943C153.128 58.0233 153.233 56.6986 152.75 55.4787C151.939 53.4261 149.97 52.2148 148.546 50.615C146.772 48.6216 147.037 46.1405 147.219 43.6884C147.318 42.3408 147.418 40.819 146.733 39.5886C146.472 39.119 145.889 38.6811 145.777 38.1472C145.674 37.6581 146.236 37.1639 146.648 37.6011Z" fill="#AFB9C5"/>
<path fill-rule="evenodd" clip-rule="evenodd" d="M148.412 66.3972C148.412 76.4186 150.056 81.6696 158.735 81.6696C167.415 81.6696 169.059 76.4186 169.059 66.3972H148.412Z" fill="#8ECC89"/>
<path fill-rule="evenodd" clip-rule="evenodd" d="M19.9532 25.2803C19.2993 24.956 18.4276 25.3321 18.7912 26.1892C19.1808 27.1071 20.6209 27.1185 21.4343 27.1003C21.3529 27.096 21.0907 26.2543 21.001 26.1271C20.7363 25.7519 20.3552 25.48 19.9532 25.2803ZM27.4873 41.7373C27.6523 41.8783 27.5007 41.7505 27.4873 41.7373V41.7373ZM19.3233 29.4319C18.9406 29.7245 18.9224 30.2409 19.235 30.5905C19.6072 31.0067 20.2868 30.9915 20.7942 30.951C21.0236 30.9326 22.249 30.8345 21.9586 30.6339C21.9809 30.6424 22.0276 30.6629 22.0775 30.6907C22.1044 30.7889 22.1326 30.8867 22.162 30.9841C22.1548 30.9884 22.1487 30.9929 22.141 30.9971C22.1493 30.9934 22.1552 30.9895 22.1625 30.9858C22.4572 31.9594 22.8766 32.8864 23.4259 33.7537C23.2204 33.6728 23.0075 33.6115 22.7917 33.5842C22.1524 33.5034 20.8076 34.0002 21.5227 34.8513C22.2083 35.6673 23.2757 34.7919 24.0539 34.6712C24.8087 35.7246 25.6409 36.7341 26.513 37.7099C26.4596 37.7267 26.4127 37.7616 26.3858 37.8158C26.0359 37.6383 25.6713 37.3844 25.3475 37.3157C24.8803 37.2166 23.9222 37.1565 23.569 37.5748C23.1346 38.0891 23.6002 38.5068 24.1134 38.6054C24.8575 38.7484 25.8316 38.3849 26.5476 38.1392C26.6295 38.1537 26.7189 38.1298 26.7724 38.0642C26.7882 38.0591 26.804 38.054 26.8194 38.049C27.7026 39.0201 28.6195 39.959 29.5309 40.8775C29.5212 40.877 29.5115 40.8764 29.5014 40.8758C29.2637 40.7199 29.0087 40.592 28.7323 40.525C28.0928 40.3691 27.3405 40.3683 26.8216 40.831C26.3047 41.2917 26.1216 42.0974 26.6564 42.6147C27.7267 43.6501 29.3037 41.2892 29.8436 41.1906C30.7698 42.1142 31.7491 42.977 32.7438 43.8225C32.6309 43.7881 32.515 43.7628 32.3953 43.7514C31.4199 43.658 29.1304 44.8539 30.3274 46.0304C31.3706 47.0557 32.578 45.0823 33.4187 44.3922C34.356 45.1802 35.2985 45.9628 36.2145 46.7759C35.7149 46.6432 35.2321 46.6237 34.6965 46.7855C34.1424 46.9532 33.2481 47.3716 33.5985 48.1198C33.9548 48.8807 35.0286 48.5345 35.5879 48.2929C35.8929 48.1612 36.5045 47.7165 37.0415 47.5292C38.5032 48.9092 39.7692 50.4291 40.7277 52.2197C41.3261 53.3376 41.7802 54.532 42.0998 55.7596C42.3038 56.5432 42.7058 57.8592 42.6253 58.879C43.0089 56.8377 42.3154 54.3859 41.5682 52.5613C40.8812 50.8835 39.8531 49.4106 38.6489 48.0847C38.9511 47.1758 41.4947 45.8649 39.9741 45.0204C39.1666 44.5739 38.3396 45.3148 38.1631 46.0994C38.0418 46.6386 38.2266 47.3161 38.4226 47.8395C38.0438 47.4353 37.6499 47.0442 37.2441 46.666C36.6833 46.1433 36.1091 45.6358 35.5293 45.1347C36.4847 44.2372 37.3888 41.6715 36.1079 41.2519C34.2164 40.634 35.1272 44.1337 35.2591 44.7897C35.2966 44.7919 35.3258 44.7806 35.3473 44.7563C35.3366 44.8164 35.3243 44.8806 35.3093 44.9454C34.1997 43.9913 33.0737 43.0559 31.9847 42.079C32.0828 42.0065 32.2388 41.7294 32.3614 41.582C32.638 41.2495 32.9027 40.9022 33.0961 40.5132C33.4017 39.8986 33.6964 38.9182 32.8864 38.5567C32.0055 38.1628 31.5869 39.2716 31.5807 39.9331C31.5765 40.3906 31.7011 40.8252 31.766 41.2736C31.7863 41.4134 31.7082 42.0438 31.8987 41.7727C31.8897 41.8726 31.8884 41.9451 31.8929 41.9964C31.6974 41.8201 31.5034 41.642 31.3106 41.4625C31.3196 41.4398 31.3262 41.4151 31.3277 41.3865C31.338 41.1893 31.1396 41.1133 31.0004 41.1711C30.746 40.9294 30.4942 40.6846 30.2468 40.435C29.7225 39.9061 29.1906 39.3622 28.6623 38.8066C28.7769 38.7082 28.7313 38.5718 28.8385 38.4673C28.9455 38.363 29.1563 38.3053 29.2821 38.2085C29.5986 37.9647 29.861 37.6095 30.0508 37.26C30.3642 36.6824 30.7692 35.4708 29.8537 35.1955C28.9102 34.9113 28.4313 36.0776 28.3706 36.8068C28.3588 36.9481 28.4646 38.2209 28.5455 38.6831C27.5681 37.6507 26.6068 36.5795 25.7358 35.4897C25.9999 35.4872 26.7486 34.9462 26.8999 34.7985C27.2692 34.4384 27.8563 33.6427 27.2089 33.2217C26.6332 32.8482 25.9235 33.3891 25.6774 33.9148C25.6369 34.0014 25.4942 34.8071 25.4831 35.1686C25.1226 34.7065 24.7787 34.2416 24.4588 33.7752C24.2454 33.4652 24.046 33.1469 23.8595 32.8219C23.9044 32.7965 23.9467 32.7521 23.9866 32.6969C24.9467 32.5339 26.1709 31.0358 25.0431 30.5146C24.5061 30.2667 23.9238 30.7784 23.6607 31.1972C23.6068 31.2829 23.5196 31.7137 23.4485 32.0536C22.9118 30.9768 22.5017 29.8369 22.1896 28.6682C22.2732 28.6474 22.344 28.5836 22.3533 28.4738C22.8194 28.208 23.1876 27.9867 23.513 27.4757C23.7152 27.1582 24.0792 26.433 23.4852 26.2568C22.7122 26.0276 22.2266 27.2083 22.1633 27.7899C22.156 27.8574 22.1562 28.0537 22.1588 28.2337C22.132 28.23 22.1048 28.2304 22.0782 28.2351C21.9007 27.5114 21.759 26.7784 21.6463 26.0441C22.0682 25.9083 22.1411 23.6925 21.8602 23.3769C21.2323 22.6705 20.7893 23.691 20.8228 24.2304C20.8624 24.8664 21.1506 25.4449 21.4937 25.9583C21.5306 26.0127 21.52 26.01 21.5296 25.9343C21.5349 25.9717 21.5474 25.9994 21.566 26.0194C21.5483 26.3542 21.5137 26.6969 21.5303 26.9931C21.5778 27.8415 21.6767 28.6947 21.8201 29.5322C21.855 29.7358 21.895 29.9378 21.9398 30.1381C21.6007 29.8492 21.1434 29.5925 20.9645 29.5122C20.5002 29.3041 19.7845 29.0793 19.3233 29.4319ZM42.6798 58.8819C42.6583 59.1777 42.6049 59.4486 42.5052 59.6719C42.5799 59.4176 42.6373 59.1533 42.6798 58.8819Z" fill="#F2F2F2"/>
<g opacity="0.7">
<path opacity="0.7" fill-rule="evenodd" clip-rule="evenodd" d="M32.6728 45.3171C34.4889 45.2228 36.7349 46.2829 36.9286 48.2569C37.0694 49.6913 37.0258 51.1215 37.2436 52.5537C37.4178 53.6983 37.7861 54.797 38.2885 55.8397C38.7716 56.8423 39.7737 57.6957 40.0343 58.7668C40.2005 59.4493 40.1075 60.4093 39.8784 61.0769C39.5998 61.8885 39.7479 61.8244 40.303 62.5054C41.3907 63.8401 42.3702 65.2087 43.0629 66.8027C44.0606 69.0987 44.7147 71.7824 44.3444 74.2956C44.2973 74.6148 44.2415 75.7601 43.802 75.8401C43.3112 75.9296 43.5407 75.2746 43.5669 75.063C43.7339 73.7129 43.8823 72.5328 43.6808 71.1617C42.9035 65.8713 39.1083 62.3857 36.6371 57.8957C36.5012 57.6642 36.2144 57.1128 36.015 56.749C35.7002 56.1748 35.3837 55.082 34.9575 54.6562C34.1549 53.854 34.8928 55.4667 35.0492 55.7746C35.247 56.1641 35.4645 56.578 35.6671 56.9192C36.5943 58.5011 37.6292 60.2278 38.5868 61.8584C34.4454 62.802 31.5287 57.8231 30.4174 54.5499C29.5017 51.853 28.4061 45.5478 32.6728 45.3171Z" fill="#69AC7C"/>
<path opacity="0.7" fill-rule="evenodd" clip-rule="evenodd" d="M57.0135 40.3089C53.9776 40.5498 52.0286 42.5531 51.1213 45.355C50.6324 46.865 50.5763 48.4162 50.3046 49.9679C49.8958 52.3026 49.0163 54.0718 47.2974 55.7351C46.765 56.2502 46.3727 56.7791 46.0938 57.345C45.5402 57.9099 45.0582 58.5492 44.7042 59.3309C44.2519 60.3291 44.1239 61.5268 44.6461 62.522C44.7865 62.7895 45.1368 63.3266 45.4998 63.5706C44.1407 66.4651 43.3934 69.6353 43.4776 72.8014C43.5285 74.7126 43.6218 76.6246 43.7307 78.5335C43.76 79.046 43.9269 79.8924 44.1776 79.0328C44.407 78.2466 44.1193 77.0123 44.0927 76.1909C43.9631 72.1895 43.8524 68.5513 45.4996 64.8128C45.6723 64.421 45.8554 64.0323 46.0461 63.6467C46.0573 63.6402 46.0677 63.6324 46.0783 63.6248C46.0855 63.6304 46.0921 63.6364 46.0994 63.6419C46.1116 63.6202 46.1283 63.5943 46.1477 63.5654C46.2024 63.509 46.2502 63.4377 46.2956 63.358C46.4417 63.1556 46.6071 62.9177 46.608 62.7875C46.608 62.7865 46.6074 62.7849 46.6074 62.7839C47.6271 61.1194 48.795 59.5466 49.988 58.0046C49.979 58.0158 51.282 56.2417 51.0805 57.2228C50.9834 57.6956 50.025 58.5959 49.6379 59.0967C48.7817 60.2109 47.7762 61.6225 46.9407 62.9876C46.8282 63.0522 46.6694 63.3695 46.5545 63.6058C46.4911 63.7255 46.4319 63.8462 46.3737 63.9513C49.3343 64.9295 51.6374 62.9592 53.2078 60.6674C53.2097 60.6647 53.2114 60.6619 53.2132 60.6592C53.6911 60.026 54.1806 59.3972 54.7922 58.8966C55.8126 58.0613 56.9053 57.914 58.1084 57.5029C61.3892 56.3819 62.7841 52.13 63.2271 48.9751C63.7269 45.4158 61.282 39.958 57.0135 40.3089Z" fill="#8ACC89"/>
<path opacity="0.7" fill-rule="evenodd" clip-rule="evenodd" d="M51.0166 30.3415C47.9007 33.5844 46.3954 38.0824 45.2034 42.311C43.8721 47.0338 42.9928 51.8296 42.959 56.7399C42.9369 59.966 42.8491 63.2123 43.0374 66.4346C43.1042 67.5791 43.2183 68.7255 43.3997 69.8576C43.4147 69.9506 43.8205 72.4784 44.2088 71.8894C44.4296 71.5544 43.7928 69.2672 43.7447 68.8862C43.474 66.7405 43.4111 64.5789 43.4243 62.4177C43.446 58.8593 43.3411 55.3191 43.7017 51.7738C43.7555 51.2445 43.7981 50.6885 43.9238 50.1707C44.0573 49.6202 43.8873 49.8605 44.3221 49.6425C44.7446 49.4307 45.2667 49.4609 45.7051 49.1951C47.4441 48.1407 48.3336 45.4321 49.026 43.655C49.8179 41.6227 50.2991 39.4556 50.6835 37.3169C50.9658 35.7456 51.1676 34.1838 51.2818 32.5922C51.3178 32.0906 51.3199 31.566 51.4185 31.0728C51.445 30.9398 51.5783 30.7044 51.5735 30.5866C51.5632 30.3372 51.4127 30.1906 51.4004 29.9811C51.27 30.0984 51.1419 30.2187 51.0166 30.3415Z" fill="#8ACC89"/>
<path fill-rule="evenodd" clip-rule="evenodd" d="M34.0266 73.5482C34.0266 78.9112 38.3742 83.2588 43.7372 83.2588C49.1002 83.2588 53.4478 78.9112 53.4478 73.5482" fill="#8ACC89"/>
<path opacity="0.7" fill-rule="evenodd" clip-rule="evenodd" d="M44.5163 73.5791H44.0032C44.0388 72.9354 44.0858 72.2928 44.1934 71.6562C44.605 69.2215 45.8921 65.6456 48.7148 65.2504C48.819 65.2357 49.202 65.2332 49.6661 65.2604C49.886 65.1375 50.1323 65.0632 50.3919 65.0461C52.7952 64.869 55.4791 66.8078 56.6384 68.8255C57.5729 70.4523 57.4155 72.5885 56.8383 74.3168C56.4517 75.4739 55.6081 77.1236 54.2013 77.1397C52.4411 77.1598 52.3563 74.9844 52.3222 73.7126C52.277 72.0219 52.0633 70.549 50.7311 69.3965C50.4205 69.1281 50.0812 68.8919 49.7675 68.6271C49.2764 68.2127 48.7337 67.7884 48.6704 67.1028C48.583 66.157 49.1169 65.9868 49.9321 66.1625C50.0711 66.1924 51.4709 66.8205 51.2636 66.3241C51.2003 66.1724 50.9692 66.0522 50.6775 65.9622C49.9227 65.8801 49.0225 65.7849 48.7637 65.8418C45.9708 66.4545 44.8834 70.3231 44.5946 72.7811C44.5635 73.0464 44.5383 73.3126 44.5163 73.5791V73.5791Z" fill="#69AC7C"/>
</g>
</svg>
