<svg width="200" height="100" viewBox="0 0 200 100" fill="none" xmlns="http://www.w3.org/2000/svg">
<path d="M66.0417 44.0766C87.0906 35.9299 94.3369 54.3182 115.041 55.2493C134.364 56.1803 197.166 45.7059 163.004 83.1809C149.691 97.7853 104.689 97.3795 53.2744 89.9311C1.85999 82.4826 40.7127 53.8799 66.0417 44.0766Z" fill="white"/>
<path fill-rule="evenodd" clip-rule="evenodd" d="M72.7296 19.0922C71.9733 18.2045 71.4614 17.1165 71.547 15.8975C71.7934 12.3851 76.6828 13.1578 77.6339 14.9305C78.5849 16.7033 78.4719 21.2 77.2427 21.5169C76.7525 21.6432 75.7083 21.3337 74.6455 20.6931L75.3126 25.4127H71.3735L72.7296 19.0922Z" fill="#915B3C"/>
<path fill-rule="evenodd" clip-rule="evenodd" d="M76.078 12.9998C75.5397 12.8356 74.7584 12.78 74.4297 12.8176C74.6167 12.3697 74.6909 11.8706 74.6304 11.3846C74.5716 10.9124 74.3606 10.5104 74.1655 10.089C74.0755 9.89484 73.9736 9.70171 73.8216 9.55317C73.6668 9.40184 73.4708 9.30195 73.2653 9.25429C73.055 9.20551 72.8351 9.20957 72.6245 9.25384C72.5313 9.27342 72.4477 9.31603 72.3563 9.33971C72.2627 9.36397 72.2173 9.3054 72.1494 9.24654C71.9857 9.10471 71.7457 9.03469 71.5386 9.00963C71.3063 8.98153 71.0652 9.01658 70.8436 9.09296C70.6279 9.16731 70.4207 9.28806 70.2648 9.46395C70.1954 9.54225 70.1324 9.63137 70.0914 9.72977C70.0746 9.77015 70.0718 9.79407 70.0315 9.80886C69.9943 9.82255 69.9507 9.82295 69.9122 9.83598C69.5403 9.96194 69.2224 10.2493 69.0492 10.6182C68.9482 10.8334 68.9004 11.2124 68.9135 11.6371C68.9266 12.0619 69.3101 13.1701 69.6688 13.5744C69.989 13.9352 70.4596 14.1733 70.9138 14.2775C70.6124 14.6221 70.4117 15.0527 70.2633 15.4907C70.1021 15.9664 70.0023 16.4606 69.9655 16.9642C69.9305 17.4427 69.9273 17.9488 70.0394 18.417C70.1444 18.8549 70.3688 19.2142 70.7434 19.4421C70.915 19.5465 71.0997 19.6249 71.2854 19.6966C71.4684 19.7673 71.6519 19.8359 71.8436 19.8756C72.2065 19.9506 72.6245 19.9377 72.904 19.6489C73.0047 19.5448 73.1155 19.414 73.189 19.2868C73.2154 19.241 73.2314 19.2111 73.1993 19.1664C73.1608 19.1129 73.0986 19.0718 73.0492 19.03C72.7675 18.7911 72.5931 18.4723 72.5491 18.0934C72.5045 17.709 72.6078 17.2128 72.9815 17.045C73.4429 16.8379 73.951 17.0756 74.3611 17.2972C74.5354 16.6821 74.8932 16.1283 75.4543 15.8461C76.075 15.534 76.7872 15.4974 77.4251 15.2296C77.5913 15.1598 77.7606 15.0806 77.883 14.9384C77.9341 14.879 77.9941 14.8019 78.0145 14.7233C78.0413 14.62 77.9747 14.5334 77.9233 14.4529C77.6506 14.0261 76.6162 13.1639 76.078 12.9998Z" fill="#191847"/>
<path fill-rule="evenodd" clip-rule="evenodd" d="M70.3888 39.0351L82.5844 59.424L91.7277 76.6612H93.697L78.3774 39.0351L70.3888 39.0351Z" fill="#784931"/>
<path fill-rule="evenodd" clip-rule="evenodd" d="M90.5236 75.8654C90.34 76.3556 90.2482 76.7223 90.2482 76.9657C90.2482 77.2617 90.2975 77.6935 90.3961 78.2614C90.7394 78.2614 93.8251 78.2614 99.6531 78.2614C99.8937 77.4661 99.7548 77.0367 99.2365 76.9733C98.7182 76.9099 98.2877 76.8527 97.9449 76.8016L93.6423 74.8834C93.5595 74.8465 93.4625 74.8837 93.4256 74.9665C93.4249 74.9679 93.4243 74.9694 93.4237 74.9708L93.1472 75.6417C92.6674 75.8655 92.2775 75.9775 91.9775 75.9775C91.7338 75.9775 91.3972 75.879 90.9678 75.6822L90.9678 75.6822C90.803 75.6066 90.6081 75.679 90.5326 75.8438C90.5293 75.8509 90.5263 75.8581 90.5236 75.8654Z" fill="#461010"/>
<path fill-rule="evenodd" clip-rule="evenodd" d="M89.1883 73.901L92.9862 72.7521C91.3223 67.7778 89.2828 62.3037 86.868 56.3298C84.4531 50.356 81.8596 44.5911 79.0875 39.0351H68.3608C71.4428 46.0632 74.7101 52.4491 78.1628 58.1928C81.6154 63.9365 85.2906 69.1726 89.1883 73.901Z" fill="#DB2721"/>
<path fill-rule="evenodd" clip-rule="evenodd" d="M69.5872 39.0351C68.4362 46.1999 66.2161 55.3538 66.0066 55.6363C65.8669 55.8246 60.8386 57.5096 50.9216 60.6911L51.347 62.4277C63.173 60.7214 69.4043 59.3976 70.0409 58.4563C70.9957 57.0443 75.7636 45.8896 77.6103 39.0351H69.5872Z" fill="#915B3C"/>
<path fill-rule="evenodd" clip-rule="evenodd" d="M54.4077 59.1899L55.157 61.9869C64.0022 62.7627 69.4218 62.2021 71.4159 60.3052C73.4099 58.4084 75.6826 51.3183 78.2339 39.0351H68.0054C66.389 49.0934 65.4853 54.3337 65.2943 54.7559C65.1034 55.1782 61.4745 56.6562 54.4077 59.1899Z" fill="#FF4133"/>
<path fill-rule="evenodd" clip-rule="evenodd" d="M51.4074 59.9676C50.8928 59.8719 50.5157 59.8452 50.276 59.8875C49.9846 59.9389 49.5678 60.0624 49.0258 60.2581C49.0854 60.5962 49.6212 63.635 50.6332 69.3745C51.4582 69.4733 51.8569 69.262 51.8293 68.7406C51.8018 68.2192 51.7834 67.7852 51.7742 67.4387L52.916 62.8685C52.938 62.7805 52.8845 62.6914 52.7966 62.6694C52.7951 62.6691 52.7936 62.6687 52.7921 62.6684L52.0833 62.5125C51.7796 62.0789 51.6016 61.7143 51.5495 61.4189C51.5072 61.1789 51.5457 60.8304 51.665 60.3733L51.665 60.3733C51.7108 60.1978 51.6057 60.0185 51.4303 59.9727C51.4227 59.9708 51.4151 59.9691 51.4074 59.9676Z" fill="#461010"/>
<path fill-rule="evenodd" clip-rule="evenodd" d="M78.6998 28.8101L84.3966 25.69C85.344 24.565 86.2774 23.6913 87.1968 23.0689C87.4778 22.9516 87.9691 22.8806 87.5096 23.6961C87.0501 24.5117 86.6035 25.3901 86.8376 25.6414C87.0717 25.8926 87.6554 25.5416 87.9346 25.9591C88.1208 26.2374 87.1236 26.677 84.943 27.278L80.8036 31.0681L78.6998 28.8101ZM87.6221 31.4426L90.1244 30.068C90.4755 28.7319 90.8953 28.0597 91.3836 28.0513C91.7587 27.8768 91.1054 29.565 91.8165 29.4186C92.5277 29.2722 94.2633 27.9813 94.5624 28.2434C95.0048 28.6312 94.6103 29.8218 94.1455 30.4141C93.2767 31.521 92.5574 31.8996 90.7796 32.3953C89.85 32.6545 88.845 33.174 87.7646 33.9538L87.6221 31.4426Z" fill="#915B3C"/>
<path fill-rule="evenodd" clip-rule="evenodd" d="M75.9254 28.1151C77.9208 28.094 80.5816 27.6725 83.4208 25.8704L84.5358 28.3569C82.5774 30.3004 79.8237 31.8972 77.416 31.8296C75.5186 31.7763 74.5488 29.4812 75.9254 28.1151Z" fill="#2026A2"/>
<path fill-rule="evenodd" clip-rule="evenodd" d="M78.6123 32.1026C80.7306 32.6309 84.2829 32.0079 89.2693 30.2336C90.5061 32.7923 91.0778 34.6165 90.9845 35.7062C86.707 37.9406 83.0408 38.9368 80.0203 39.0026C80.1163 40.7948 79.8981 42.5001 79.1653 44.0584C77.6588 47.2618 68.837 44.2951 65.8709 44.879C64.0134 38.8466 67.6049 36.3951 67.6078 32.5352C67.611 28.3082 71.005 21.8018 71.5044 21.8018H76.0584C76.3096 25.0301 77.5743 28.5878 78.6123 32.1026Z" fill="#1F28CF"/>
<path fill-rule="evenodd" clip-rule="evenodd" d="M128.238 11.7196C129.087 10.723 129.662 9.50175 129.566 8.13327C129.289 4.19029 123.8 5.05769 122.733 7.04777C121.665 9.03785 121.792 14.0858 123.172 14.4415C123.722 14.5834 124.894 14.2359 126.088 13.5168L125.339 18.8149H129.761L128.238 11.7196Z" fill="#FFC4A3"/>
<path fill-rule="evenodd" clip-rule="evenodd" d="M125.867 8.56869C125.697 10.9265 125.25 12.1055 124.523 12.1055C123.434 12.1055 122.51 11.4139 122.032 11.4139C121.683 11.4139 121.761 11.8499 121.992 12.1732C122.182 12.44 123.11 12.6971 123.11 13.1106C123.11 13.5241 122.377 13.2042 122.377 13.4495C122.377 13.8552 122.248 14.6179 122.952 14.6179C123.665 14.6179 125.708 14.3582 126.058 13.3006C126.284 12.6181 126.43 11.2037 126.497 9.05756C126.54 9.05242 126.584 9.04978 126.628 9.04978C127.239 9.04978 127.734 9.54472 127.734 10.1553C127.734 10.4652 127.606 10.7454 127.401 10.9461C127.657 11.3071 127.943 11.6843 128.272 12.0735C129.506 11.3331 130.422 9.16566 129.215 7.08354C128.882 6.06354 128.127 5.51872 127.235 5.26574C126.513 4.96362 125.763 4.92955 125.13 5.11067C123.889 5.21709 122.782 5.59542 122.468 5.8201C122.468 6.99471 122.695 7.34322 124.639 7.3125C125.117 7.56477 125.484 7.99918 125.867 8.56869Z" fill="#191847"/>
<path fill-rule="evenodd" clip-rule="evenodd" d="M130.115 34.0619L121.072 56.9503L115.007 76.3006H112.612L121.884 34.0619L130.115 34.0619Z" fill="#FFC4A3"/>
<path fill-rule="evenodd" clip-rule="evenodd" d="M131.936 34.0619C132.033 42.105 133.437 52.9339 133.661 53.4352C133.811 53.7695 138.975 58.02 149.152 66.1868L147.503 67.9521C135.494 60.9501 129.212 56.9821 128.656 56.0482C127.822 54.6474 125.108 41.7566 122.93 34.0619H131.936Z" fill="#FFC4A3"/>
<path fill-rule="evenodd" clip-rule="evenodd" d="M149.373 65.5976C149.927 65.7934 150.309 65.9791 150.518 66.1547C150.773 66.3682 151.108 66.7223 151.526 67.2168C151.278 67.5121 149.051 70.1656 144.846 75.1774C143.988 74.8105 143.719 74.3812 144.039 73.8898C144.358 73.3983 144.62 72.9867 144.823 72.6551L146.278 67.5709C146.306 67.4731 146.408 67.4165 146.506 67.4445C146.508 67.445 146.509 67.4455 146.511 67.446L147.288 67.6923C147.826 67.4412 148.204 67.1867 148.42 66.9287C148.596 66.7192 148.755 66.3587 148.895 65.8473L148.895 65.8473C148.949 65.6511 149.152 65.5357 149.348 65.5897C149.357 65.592 149.365 65.5947 149.373 65.5976Z" fill="#E4E4E4"/>
<path fill-rule="evenodd" clip-rule="evenodd" d="M115.988 75.4073C116.194 75.9576 116.297 76.3693 116.297 76.6425C116.297 76.9747 116.241 77.4596 116.131 78.097C115.745 78.097 112.281 78.097 105.739 78.097C105.469 77.2042 105.625 76.7223 106.206 76.6511C106.788 76.5799 107.272 76.5156 107.656 76.4582L112.487 74.305C112.579 74.2635 112.688 74.3053 112.73 74.3982C112.731 74.3998 112.731 74.4014 112.732 74.403L113.042 75.1562C113.581 75.4075 114.019 75.5331 114.355 75.5331C114.629 75.5331 115.007 75.4226 115.489 75.2016L115.489 75.2016C115.674 75.1168 115.893 75.198 115.977 75.3831C115.981 75.391 115.984 75.3991 115.988 75.4073Z" fill="#E4E4E4"/>
<path fill-rule="evenodd" clip-rule="evenodd" d="M124.035 74.3075L112.648 73.0717L121.087 34.0619H131.286L124.035 74.3075Z" fill="#F3BE00"/>
<path fill-rule="evenodd" clip-rule="evenodd" d="M146.797 63.3389L139.328 72.1801C131.46 63.5875 126.874 57.9808 125.568 55.3601C124.262 52.7394 123.088 45.64 122.046 34.0619H133.528C134.097 44.2478 134.481 49.5777 134.679 50.0517C134.877 50.5257 138.917 54.9548 146.797 63.3389Z" fill="#F4CD41"/>
<path fill-rule="evenodd" clip-rule="evenodd" d="M113.999 31.777L108.779 36.8687C107.261 37.5165 106.016 38.2318 105.046 39.0145C104.828 39.2777 104.591 39.7818 105.617 39.5562C106.643 39.3306 107.733 39.1395 107.926 39.4732C108.119 39.807 107.551 40.3184 107.907 40.7553C108.145 41.0465 108.944 40.1202 110.305 37.9764L115.732 34.7766L113.999 31.777ZM139.521 27.1689L135.487 27.184C138.56 37.1396 140.191 42.3522 140.38 42.8218C140.807 43.8784 139.904 45.4875 139.519 46.3522C140.775 46.9145 140.641 44.8322 142.226 45.5696C143.673 46.2428 144.774 47.4624 146.445 46.431C146.651 46.3042 146.876 45.8267 146.332 45.4536C144.976 44.524 143.023 42.8972 142.759 42.3617C142.399 41.6314 141.32 36.5672 139.521 27.1689Z" fill="#FFC4A3"/>
<path fill-rule="evenodd" clip-rule="evenodd" d="M127.227 15.7239L125.634 15.4506C123.124 24.3224 110.229 30.3698 109.438 33.6864C109.147 34.9026 110.023 35.5175 109.57 35.8879L111.641 37.4039C111.992 36.9947 112.74 37.7432 114.303 37.2196C115.866 36.6961 127.227 26.2289 127.227 15.7239Z" fill="#191847"/>
<path fill-rule="evenodd" clip-rule="evenodd" d="M124.547 16.9034C124.731 28.649 117.941 31.6452 119.454 36.357C120.702 40.248 132.657 44.4308 134.725 40.6168C135.563 39.0729 135.943 37.2056 135.986 35.1755C136.514 36.7352 136.932 38.0778 137.24 39.2035C137.771 41.1455 139.828 41.4542 139.828 42.2023L142.538 41.4542C142.354 40.4378 143.632 39.9429 143.289 37.6723C141.754 27.4987 137.63 20.1241 130.917 15.5486L130.848 14.5554C130.819 14.1494 130.467 13.8432 130.061 13.8716L125.098 14.2187C124.692 14.247 124.386 14.5992 124.415 15.0053L124.547 16.9034Z" fill="#2F3676"/>
</svg>
