<svg width="200" height="100" viewBox="0 0 200 100" fill="none" xmlns="http://www.w3.org/2000/svg">
<path d="M121.584 42.194C145.507 42.2073 150.963 64.7853 150.7 76.0726C151.669 88.6411 87.2527 90.5115 49.9018 82.0383C12.5508 73.5651 91.6811 42.1774 121.584 42.194Z" fill="white"/>
<path fill-rule="evenodd" clip-rule="evenodd" d="M92.6303 22.9565C91.7216 21.8899 91.1066 20.5828 91.2094 19.1181C91.5055 14.898 97.38 15.8264 98.5227 17.9563C99.6654 20.0863 99.5297 25.4891 98.0528 25.8697C97.4638 26.0216 96.2091 25.6497 94.9322 24.88L95.7337 30.5505H91.001L92.6303 22.9565Z" fill="#B28B67"/>
<path fill-rule="evenodd" clip-rule="evenodd" d="M89.146 17.7133C88.9931 17.5618 88.9097 17.3456 88.8376 17.1403C88.7627 16.927 88.6899 16.7116 88.6402 16.4896C88.5408 16.046 88.5399 15.536 88.8563 15.1916C89.11 14.9154 89.4908 14.7915 89.8422 14.7646C90.0763 14.7466 90.3168 14.7794 90.5412 14.8532C90.7639 14.9264 90.9558 15.0723 91.1717 15.1628C91.1799 14.6848 91.2618 14.1847 91.5043 13.7766C91.7376 13.3839 92.1097 13.1635 92.5333 13.1052C92.9682 13.0454 93.3976 13.1472 93.7869 13.3577C93.8844 13.4104 93.981 13.4656 94.0734 13.5282C94.1507 13.5805 94.2312 13.6436 94.322 13.6649C94.4232 13.6886 94.4734 13.6302 94.5391 13.5563C94.6162 13.4697 94.7031 13.3935 94.7951 13.3259C95.2017 13.0271 95.7351 12.9042 96.2061 13.0833C96.4231 13.1658 96.6342 13.306 96.7814 13.4991C96.9127 13.6713 97.0063 13.9444 97.1874 14.0644C97.2643 14.1153 97.3186 14.0478 97.3886 13.998C97.4937 13.923 97.5939 13.8404 97.7003 13.7675C97.8498 13.6651 98.0116 13.5885 98.1849 13.5484C98.4386 13.4897 98.7891 13.5035 98.8616 13.8357C98.8889 13.9605 98.868 14.094 98.8592 14.2197C98.8471 14.3924 98.8345 14.565 98.8195 14.7374C98.8082 14.8683 98.7938 14.9947 98.7691 15.1233C98.7559 15.1918 98.7146 15.3195 98.744 15.3882C98.7807 15.4739 98.9502 15.4252 99.0226 15.4281C99.1656 15.434 99.3092 15.4591 99.4415 15.5202C99.5439 15.5676 99.6517 15.6373 99.6949 15.7547C99.7215 15.8269 99.7145 15.901 99.702 15.9752C99.6869 16.0643 99.7041 16.1115 99.7154 16.2014C99.9074 16.1069 100.573 15.8967 100.657 16.2409C100.685 16.3555 100.621 16.4851 100.573 16.5817C100.488 16.7512 100.376 16.9062 100.262 17.054C100.025 17.3623 99.7414 17.6282 99.4363 17.8556C99.7937 18.0145 99.887 18.4832 99.5775 18.7625C99.4409 18.8858 99.2571 18.9133 99.0848 18.9054C99.0217 18.9025 98.9307 18.8783 98.8811 18.8892C98.8544 18.8952 98.8258 18.9178 98.7888 18.9203C98.5455 18.937 98.2709 18.8784 98.0331 18.8244C97.6093 18.7282 97.2082 18.5275 96.8806 18.2217C96.7965 18.1433 96.7271 18.0981 96.614 18.0993C96.5149 18.1003 96.4176 18.1275 96.3186 18.13C96.0566 18.1367 95.8203 18.0086 95.577 17.9233C95.5621 18.252 95.4685 18.614 95.3341 18.9097C95.2244 19.1508 94.9954 19.1859 94.7705 19.207C94.051 19.2747 93.3289 19.1992 92.6086 19.2002C93.3059 19.3578 94.0265 19.4228 94.7177 19.6083C95.0301 19.6921 94.7915 19.9027 94.658 20.0486C94.438 20.289 94.2744 20.5868 94.161 20.9006C93.8199 20.4559 93.2169 20.1629 92.6827 20.2995C92.0924 20.4504 91.6768 21.2487 92.0542 21.8225C92.2734 22.1556 92.6691 22.2842 92.9984 22.4274C92.7415 22.6944 92.6794 23.0888 92.5248 23.4211C92.4485 23.5849 92.3415 23.7702 92.171 23.8273C92.1079 23.8484 92.0339 23.8502 91.9841 23.9017C91.9225 23.9653 91.9078 24.0365 91.829 24.0912C91.5149 24.3097 91.0241 24.2928 90.7456 24.0078C90.4938 23.75 90.5593 23.3421 90.7696 23.0807C90.4348 22.9411 89.8249 22.7616 89.9579 22.2401C89.2324 22.1919 87.471 21.0153 88.4447 20.1555C87.9103 19.8535 87.4194 19.1154 87.7627 18.4648C88.027 17.9638 88.6416 17.7399 89.146 17.7133Z" fill="#191847"/>
<path fill-rule="evenodd" clip-rule="evenodd" d="M82.4471 55.2001H97.6815L99.6776 79.6525H77L82.4471 55.2001Z" fill="#C5CFD6"/>
<path fill-rule="evenodd" clip-rule="evenodd" d="M82.4471 55.2001H87.1325L89.9369 79.6525H77L82.4471 55.2001Z" fill="black" fill-opacity="0.1"/>
<path fill-rule="evenodd" clip-rule="evenodd" d="M115.05 51.0109C116.674 50.0356 119.399 51.2887 119.397 52.6836C119.392 56.8571 115.583 76.5272 115.384 77.7706C115.185 79.0141 113.055 79.3425 112.931 77.7747C112.733 75.28 112.367 66.6441 112.734 62.6468C112.885 60.9968 113.048 59.4254 113.209 58.0235C111.21 61.6328 108.119 66.8004 103.936 73.5264L101.665 72.4888C103.448 66.6131 104.91 62.465 106.052 60.0445C108.006 55.9001 109.838 52.3509 110.609 51.1008C111.822 49.1343 113.934 49.8204 115.05 51.0109Z" fill="#B28B67"/>
<path fill-rule="evenodd" clip-rule="evenodd" d="M101.827 69.2258L109.622 50.7607C111.489 47.7569 116.724 51.3719 116.088 53.1141C114.642 57.0694 107.289 69.8744 106.859 71.0528L101.827 69.2258Z" fill="#F04A4A"/>
<path fill-rule="evenodd" clip-rule="evenodd" d="M101.394 71.3244C100.909 71.7241 100.593 72.0505 100.447 72.3038C100.269 72.6117 100.061 73.0907 99.8221 73.7408C100.179 73.9471 103.39 75.8008 109.454 79.3019C110.182 78.6189 110.296 78.0888 109.795 77.7114C109.293 77.3341 108.88 77.0159 108.554 76.7568L105.229 72.1762C105.165 72.088 105.042 72.0684 104.954 72.1324C104.952 72.1335 104.951 72.1346 104.949 72.1357L104.258 72.6677C103.625 72.6124 103.152 72.4946 102.84 72.3144C102.586 72.168 102.295 71.8634 101.966 71.4005L101.966 71.4005C101.84 71.2229 101.594 71.1812 101.417 71.3073C101.409 71.3127 101.401 71.3184 101.394 71.3244Z" fill="#E4E4E4"/>
<path fill-rule="evenodd" clip-rule="evenodd" d="M112.432 76.7738C112.211 77.3628 112.101 77.8034 112.101 78.0958C112.101 78.4514 112.16 78.9703 112.279 79.6525C112.691 79.6525 116.399 79.6525 123.401 79.6525C123.69 78.697 123.523 78.1812 122.9 78.105C122.278 78.0288 121.76 77.96 121.349 77.8986L116.179 75.594C116.08 75.5497 115.963 75.5944 115.919 75.6938C115.918 75.6955 115.917 75.6972 115.916 75.699L115.584 76.505C115.008 76.774 114.539 76.9085 114.179 76.9085C113.886 76.9085 113.482 76.7902 112.966 76.5537L112.966 76.5537C112.768 76.4629 112.533 76.5498 112.443 76.7478C112.439 76.7564 112.435 76.7651 112.432 76.7738Z" fill="#E4E4E4"/>
<path fill-rule="evenodd" clip-rule="evenodd" d="M119.944 54.1023C119.944 59.3412 117.456 71.5616 117.454 72.7152L112.101 72.7193C112.885 61.8152 113.162 56.3044 112.935 56.1869C112.593 56.0107 98.9236 57.5517 94.824 57.5517C88.9123 57.5517 86.4668 53.8238 86.2683 46.9178H97.9791C100.364 47.173 112.801 49.6816 117.42 50.544C119.397 50.9132 119.944 52.6591 119.944 54.1023Z" fill="#CD3E3E"/>
<path fill-rule="evenodd" clip-rule="evenodd" d="M99.8035 34.6325L106.648 30.8837C107.786 29.5321 108.908 28.4824 110.013 27.7345C110.35 27.5936 110.94 27.5083 110.388 28.4881C109.836 29.468 109.3 30.5235 109.581 30.8253C109.862 31.1272 110.564 30.7055 110.899 31.2071C111.123 31.5414 109.925 32.0696 107.305 32.7917L102.331 37.3455L99.8035 34.6325ZM110.523 37.7955L113.53 36.1438C113.952 34.5386 114.456 33.731 115.043 33.7209C115.494 33.5112 114.709 35.5396 115.563 35.3637C116.418 35.1878 118.503 33.6368 118.862 33.9517C119.394 34.4176 118.92 35.8481 118.361 36.5597C117.318 37.8897 116.453 38.3445 114.317 38.9401C113.2 39.2515 111.993 39.8757 110.695 40.8127L110.523 37.7955Z" fill="#997659"/>
<path d="M114.571 23.8393C114.832 23.5412 115.244 23.425 115.622 23.5429L122.045 25.5461C122.732 25.7605 122.974 26.609 122.504 27.1541L115.474 35.2997C115.191 35.6273 114.73 35.7359 114.331 35.5688L108.28 33.0359C107.65 32.7723 107.464 31.9692 107.913 31.4552L114.571 23.8393Z" fill="#FFDD9B"/>
<path fill-rule="evenodd" clip-rule="evenodd" d="M110.523 37.7955L113.53 36.1438C113.952 34.5386 114.456 33.7309 115.043 33.7209C115.494 33.5112 114.709 35.5395 115.563 35.3636C116.417 35.1877 118.503 33.6368 118.862 33.9517C119.394 34.4176 118.92 35.8481 118.361 36.5597C117.317 37.8897 116.453 38.3445 114.317 38.9401C113.2 39.2515 111.993 39.8757 110.695 40.8127L110.523 37.7955Z" fill="#997659"/>
<path fill-rule="evenodd" clip-rule="evenodd" d="M96.47 33.7974C98.8675 33.7721 102.064 33.2657 105.476 31.1004L106.815 34.088C104.462 36.4231 101.154 38.3417 98.261 38.2604C95.9812 38.1964 94.8161 35.4389 96.47 33.7974Z" fill="#B43B3B"/>
<path fill-rule="evenodd" clip-rule="evenodd" d="M99.6981 38.5885C102.243 39.2233 106.511 38.4747 112.502 36.3429C113.988 39.4172 114.675 41.6089 114.563 42.9181C109.424 45.6028 105.019 46.7997 101.39 46.8787C101.505 49.0321 101.243 51.081 100.363 52.9533C98.5525 56.8022 87.9533 53.2377 84.3895 53.9392C82.1577 46.6913 86.4729 43.7458 86.4763 39.1082C86.4801 34.0295 90.5581 26.2122 91.1581 26.2122H96.6297C96.9316 30.0909 98.4511 34.3655 99.6981 38.5885Z" fill="#F04A4A"/>
</svg>
